<svg width="28" height="28" viewBox="0 0 28 28" fill="none" xmlns="http://www.w3.org/2000/svg">
<path d="M22.8787 0.87868C24.0503 -0.292893 25.9497 -0.292893 27.1213 0.87868C28.2929 2.05025 28.2929 3.94975 27.1213 5.12132L18.331 13.9116C18.2822 13.9604 18.2822 14.0396 18.331 14.0884L27.1213 22.8787C28.2929 24.0503 28.2929 25.9497 27.1213 27.1213C25.9497 28.2929 24.0503 28.2929 22.8787 27.1213L14.0884 18.331C14.0396 18.2822 13.9604 18.2822 13.9116 18.331L5.12132 27.1213C3.94975 28.2929 2.05025 28.2929 0.87868 27.1213C-0.292893 25.9497 -0.292893 24.0503 0.87868 22.8787L9.66897 14.0884C9.71779 14.0396 9.71779 13.9604 9.66897 13.9116L0.878682 5.12132C-0.292891 3.94975 -0.292891 2.05025 0.878682 0.87868C2.05025 -0.292893 3.94975 -0.292893 5.12132 0.87868L13.9116 9.66897C13.9604 9.71779 14.0396 9.71779 14.0884 9.66897L22.8787 0.87868Z" fill="#F92F60"/>
</svg>
